<svg width="24" height="24" viewBox="0 0 24 24" fill="none" xmlns="http://www.w3.org/2000/svg">
<path d="M12 15.75C7.86 15.75 4.5 12.5 4.5 8.5C4.5 4.5 7.86 1.25 12 1.25C16.14 1.25 19.5 4.5 19.5 8.5C19.5 12.5 16.14 15.75 12 15.75ZM12 2.75C8.69 2.75 6 5.33 6 8.5C6 11.67 8.69 14.25 12 14.25C15.31 14.25 18 11.67 18 8.5C18 5.33 15.31 2.75 12 2.75Z" fill="white"/>
<path d="M15.62 22.748C15.34 22.748 15.06 22.678 14.77 22.548L12.08 21.278C12.0204 21.268 11.9596 21.268 11.9 21.278L9.23002 22.538C8.64002 22.818 8.02002 22.808 7.54002 22.498C7.04002 22.178 6.75002 21.588 6.76002 20.888L6.77002 13.508C6.77002 13.098 7.09002 12.738 7.52002 12.758C7.93002 12.758 8.27002 13.098 8.27002 13.508L8.26002 20.888C8.26002 21.108 8.32002 21.218 8.35002 21.228C8.37002 21.238 8.46002 21.248 8.60002 21.178L11.28 19.908C11.71 19.708 12.3 19.708 12.73 19.908L15.42 21.178C15.56 21.248 15.65 21.238 15.67 21.228C15.7 21.208 15.76 21.098 15.76 20.888V13.328C15.76 12.918 16.1 12.578 16.51 12.578C16.92 12.578 17.26 12.918 17.26 13.328V20.888C17.26 21.598 16.97 22.178 16.47 22.498C16.21 22.668 15.92 22.748 15.62 22.748Z" fill="white"/>
</svg>
