<svg width="25" height="31" viewBox="0 0 25 31" fill="none" xmlns="http://www.w3.org/2000/svg">
<path d="M23.8158 19.3388L22.2742 16.7796C21.9504 16.2092 21.6575 15.13 21.6575 14.4979V10.5975C21.6556 8.87707 21.1667 7.1923 20.2473 5.73814C19.3279 4.28397 18.0155 3.11984 16.4621 2.38043C16.0656 1.67641 15.4873 1.09182 14.7876 0.687734C14.0879 0.283651 13.2925 0.0749164 12.4846 0.0833449C10.8042 0.0833449 9.29333 0.992928 8.49166 2.42668C5.48541 3.9221 3.40416 7.02084 3.40416 10.5975V14.4979C3.40416 15.13 3.11124 16.2092 2.78749 16.7642L1.23041 19.3388C0.613743 20.3717 0.474993 21.5125 0.86041 22.5608C1.23041 23.5938 2.10916 24.3954 3.24999 24.7808C6.24083 25.7983 9.38583 26.2917 12.5308 26.2917C15.6758 26.2917 18.8208 25.7983 21.8117 24.7963C22.8908 24.4417 23.7233 23.6246 24.1242 22.5608C24.525 21.4971 24.4171 20.3254 23.8158 19.3388ZM16.8629 27.8488C16.5387 28.7462 15.946 29.5222 15.1655 30.071C14.3849 30.6199 13.4542 30.9152 12.5 30.9167C11.2821 30.9167 10.0796 30.4233 9.23166 29.5446C8.73833 29.0821 8.36833 28.4654 8.15249 27.8333C8.35291 27.8642 8.55333 27.8796 8.76916 27.9104C9.12374 27.9567 9.49374 28.0029 9.86374 28.0338C10.7425 28.1108 11.6367 28.1571 12.5308 28.1571C13.4096 28.1571 14.2883 28.1108 15.1517 28.0338C15.4754 28.0029 15.7992 27.9875 16.1075 27.9413L16.8629 27.8488Z" fill="#77789A"/>
</svg>
