<svg width="22" height="22" viewBox="0 0 22 22" fill="none" xmlns="http://www.w3.org/2000/svg">
<path d="M15.41 3.00001C17.35 3.00001 18.91 4.57001 18.91 6.50001C18.91 8.39001 17.41 9.93 15.54 10C15.4536 9.99 15.3664 9.99 15.28 10M17.34 19C18.06 18.85 18.74 18.56 19.3 18.13C20.86 16.96 20.86 15.03 19.3 13.86C18.75 13.44 18.08 13.16 17.37 13M8.15997 9.87C8.05997 9.86 7.93997 9.86 7.82997 9.87C6.68217 9.83103 5.59461 9.34684 4.7976 8.51996C4.00059 7.69309 3.55671 6.58846 3.55997 5.44001C3.55997 2.99001 5.53997 1.00001 7.99997 1.00001C9.17621 0.978788 10.3127 1.4257 11.1594 2.24242C12.0061 3.05914 12.4938 4.17877 12.515 5.35501C12.5362 6.53124 12.0893 7.66773 11.2726 8.51446C10.4558 9.36118 9.33621 9.84879 8.15997 9.87ZM3.15997 13.56C0.739971 15.18 0.739971 17.82 3.15997 19.43C5.90997 21.27 10.42 21.27 13.17 19.43C15.59 17.81 15.59 15.17 13.17 13.56C10.43 11.73 5.91997 11.73 3.15997 13.56Z" stroke="white" stroke-width="1.5" stroke-linecap="round" stroke-linejoin="round"/>
</svg>
