<svg width="21" height="21" viewBox="0 0 21 21" fill="none" xmlns="http://www.w3.org/2000/svg">
<path d="M9.97921 19.875C11.2787 19.875 12.5656 19.619 13.7662 19.1217C14.9668 18.6244 16.0577 17.8955 16.9766 16.9766C17.8955 16.0577 18.6245 14.9668 19.1218 13.7661C19.6191 12.5655 19.875 11.2787 19.875 9.97916C19.875 8.67962 19.6191 7.39281 19.1218 6.19219C18.6245 4.99157 17.8955 3.90066 16.9766 2.98175C16.0577 2.06284 14.9668 1.33392 13.7662 0.836604C12.5656 0.339291 11.2787 0.0833282 9.97921 0.0833282C7.35467 0.0833283 4.83762 1.12592 2.9818 2.98175C1.12597 4.83758 0.083374 7.35462 0.083374 9.97916C0.083374 12.6037 1.12597 15.1207 2.9818 16.9766C4.83762 18.8324 7.35467 19.875 9.97921 19.875ZM20.1875 20.9156C20 20.9156 19.8125 20.8427 19.6771 20.7073L17.7396 18.7698C17.6044 18.6322 17.5286 18.4471 17.5286 18.2542C17.5286 18.0613 17.6044 17.8761 17.7396 17.7385C18.0209 17.4573 18.4792 17.4573 18.7709 17.7385L20.7084 19.676C20.9896 19.9573 20.9896 20.4156 20.7084 20.7073C20.5625 20.8427 20.375 20.9156 20.1875 20.9156Z" fill="#77789A"/>
</svg>
