<svg width="31" height="31" viewBox="0 0 31 31" fill="none" xmlns="http://www.w3.org/2000/svg">
<path d="M14.7292 29.375C16.6525 29.375 18.557 28.9962 20.3339 28.2602C22.1108 27.5241 23.7254 26.4453 25.0854 25.0853C26.4454 23.7254 27.5242 22.1108 28.2602 20.3339C28.9962 18.557 29.375 16.6525 29.375 14.7292C29.375 12.8059 28.9962 10.9014 28.2602 9.12446C27.5242 7.34754 26.4454 5.733 25.0854 4.37301C23.7254 3.01302 22.1108 1.93421 20.3339 1.19819C18.557 0.462169 16.6525 0.0833435 14.7292 0.0833435C10.8449 0.0833436 7.11967 1.62638 4.37304 4.37301C1.62641 7.11964 0.083374 10.8449 0.083374 14.7292C0.083374 18.6135 1.62641 22.3387 4.37304 25.0853C7.11967 27.832 10.8449 29.375 14.7292 29.375ZM29.8375 30.9151C29.56 30.9151 29.2825 30.8072 29.0821 30.6068L26.2146 27.7393C26.0145 27.5357 25.9023 27.2617 25.9023 26.9762C25.9023 26.6907 26.0145 26.4166 26.2146 26.2131C26.6309 25.7968 27.3092 25.7968 27.7409 26.2131L30.6084 29.0806C31.0246 29.4968 31.0246 30.1751 30.6084 30.6068C30.3925 30.8072 30.115 30.9151 29.8375 30.9151Z" fill="#77789A"/>
</svg>
