<svg width="34" height="34" viewBox="0 0 34 34" fill="none" xmlns="http://www.w3.org/2000/svg">
<path d="M23.9834 0.333344H10.0167C3.95004 0.333344 0.333374 3.95001 0.333374 10.0167V23.9667C0.333374 30.05 3.95004 33.6667 10.0167 33.6667H23.9667C30.0334 33.6667 33.65 30.05 33.65 23.9833V10.0167C33.6667 3.95001 30.05 0.333344 23.9834 0.333344ZM23.25 23.25H10.75C10.0667 23.25 9.50004 22.6833 9.50004 22C9.50004 21.3167 10.0667 20.75 10.75 20.75H23.25C23.9334 20.75 24.5 21.3167 24.5 22C24.5 22.6833 23.9334 23.25 23.25 23.25ZM23.25 13.25H10.75C10.0667 13.25 9.50004 12.6833 9.50004 12C9.50004 11.3167 10.0667 10.75 10.75 10.75H23.25C23.9334 10.75 24.5 11.3167 24.5 12C24.5 12.6833 23.9334 13.25 23.25 13.25Z" fill="#77789A"/>
</svg>
